<svg width="40" height="40" viewBox="0 0 40 40" fill="none" xmlns="http://www.w3.org/2000/svg">
<path d="M37.5667 10.7C37.3687 9.90902 36.9655 9.18429 36.3978 8.59902C35.83 8.01374 35.1179 7.58865 34.3333 7.36667C31.4667 6.66667 20 6.66667 20 6.66667C20 6.66667 8.53333 6.66667 5.66666 7.43334C4.88208 7.65531 4.16996 8.08041 3.60224 8.66568C3.03452 9.25096 2.63131 9.97569 2.43333 10.7667C1.90869 13.6759 1.65206 16.6272 1.66666 19.5833C1.64796 22.5617 1.90461 25.5355 2.43333 28.4667C2.6516 29.2331 3.06384 29.9302 3.63024 30.4908C4.19663 31.0514 4.89803 31.4564 5.66666 31.6667C8.53333 32.4333 20 32.4333 20 32.4333C20 32.4333 31.4667 32.4333 34.3333 31.6667C35.1179 31.4447 35.83 31.0196 36.3978 30.4343C36.9655 29.849 37.3687 29.1243 37.5667 28.3333C38.0873 25.446 38.3439 22.5172 38.3333 19.5833C38.352 16.6049 38.0954 13.6312 37.5667 10.7V10.7Z" stroke="#FF4B5C" stroke-width="2" stroke-linecap="round" stroke-linejoin="round"/>
<path d="M16.25 25.0333L25.8333 19.5833L16.25 14.1333V25.0333Z" stroke="#FF4B5C" stroke-width="2" stroke-linecap="round" stroke-linejoin="round"/>
</svg>
