<svg width="40" height="40" viewBox="0 0 40 40" fill="none" xmlns="http://www.w3.org/2000/svg">
<path d="M28.3333 3.33333H11.6667C7.0643 3.33333 3.33334 7.06429 3.33334 11.6667V28.3333C3.33334 32.9357 7.0643 36.6667 11.6667 36.6667H28.3333C32.9357 36.6667 36.6667 32.9357 36.6667 28.3333V11.6667C36.6667 7.06429 32.9357 3.33333 28.3333 3.33333Z" stroke="#FF4B5C" stroke-width="2" stroke-linecap="round" stroke-linejoin="round"/>
<path d="M26.6667 18.95C26.8724 20.3371 26.6355 21.7537 25.9896 22.9984C25.3438 24.243 24.3219 25.2524 23.0694 25.8828C21.8169 26.5132 20.3974 26.7327 19.013 26.5099C17.6286 26.2871 16.3496 25.6335 15.3581 24.6419C14.3665 23.6504 13.7129 22.3715 13.4901 20.987C13.2674 19.6026 13.4868 18.1832 14.1172 16.9306C14.7477 15.6781 15.757 14.6562 17.0017 14.0104C18.2463 13.3646 19.6629 13.1276 21.05 13.3333C22.4649 13.5431 23.7748 14.2024 24.7862 15.2138C25.7976 16.2252 26.4569 17.5351 26.6667 18.95Z" stroke="#FF4B5C" stroke-width="2" stroke-linecap="round" stroke-linejoin="round"/>
<path d="M29.1667 10.8333H29.1842" stroke="#FF4B5C" stroke-width="2" stroke-linecap="round" stroke-linejoin="round"/>
</svg>
