<svg width="40" height="40" viewBox="0 0 40 40" fill="none" xmlns="http://www.w3.org/2000/svg">
<path d="M34.1162 5.80322C30.3739 2.06116 25.398 0 20.1056 0C15.943 0 11.9589 1.27686 8.58431 3.69293C8.23336 3.94409 8.15249 4.43207 8.40364 4.78302C8.65511 5.13397 9.14309 5.21454 9.49373 4.96338C12.6016 2.73865 16.2711 1.5625 20.1056 1.5625C30.1694 1.5625 38.357 9.75006 38.357 19.8141C38.357 29.8779 30.1694 38.0655 20.1056 38.0655C17.0398 38.0655 14.0079 37.2906 11.3376 35.8246C11.1603 35.7275 10.9525 35.7028 10.7578 35.7553L2.06087 38.1058L4.43209 29.6432C4.48946 29.4388 4.46108 29.22 4.35366 29.0372C2.71822 26.2503 1.85396 23.0612 1.85396 19.8141C1.85396 15.9793 3.03011 12.3099 5.25484 9.20227C5.506 8.85162 5.42513 8.36365 5.07448 8.11249C4.72353 7.86133 4.23555 7.94189 3.98439 8.29285C1.56832 11.6672 0.291462 15.6512 0.291462 19.8141C0.291462 23.2269 1.17128 26.5811 2.83907 29.5377L0.185261 39.0079C0.109272 39.2786 0.184956 39.5691 0.382405 39.7687C0.53133 39.9185 0.731831 40 0.937519 40C1.00557 40 1.07393 39.9911 1.14138 39.9728L10.8652 37.345C13.6963 38.8394 16.8842 39.628 20.1053 39.628C25.398 39.628 30.3739 37.5671 34.1159 33.8245C37.8583 30.0824 39.9195 25.1065 39.9195 19.8138C39.9195 14.5215 37.8586 9.5459 34.1162 5.80322Z" fill="#FF4B5C"/>
<path d="M32.9117 29.2844C33.2706 29.5239 33.7558 29.4272 33.9954 29.0683C35.8264 26.3248 36.7944 23.1247 36.7944 19.8138C36.7944 15.3558 35.0586 11.1646 31.9067 8.0127C28.7549 4.86084 24.5639 3.125 20.1056 3.125C15.6473 3.125 11.456 4.86084 8.30414 8.0127C5.15228 11.1646 3.41644 15.3558 3.41644 19.8141C3.41644 22.7835 4.20654 25.6992 5.70129 28.2462L6.20544 29.1055L4.67804 34.5566C4.60205 34.827 4.67743 35.1175 4.87518 35.3171C5.07294 35.5167 5.36285 35.5948 5.63416 35.5215L11.2616 34.0005L12.0892 34.455C14.53 35.795 17.3019 36.503 20.1053 36.503C23.4164 36.503 26.6165 35.535 29.3597 33.7036C29.7186 33.4644 29.8154 32.9791 29.5758 32.6202C29.3362 32.2614 28.8513 32.1646 28.4924 32.4042C26.0068 34.0634 23.1067 34.9405 20.1053 34.9405C17.5641 34.9405 15.0522 34.299 12.8412 33.0853L11.7377 32.4792C11.5607 32.3822 11.3528 32.3575 11.1578 32.41L6.55334 33.6545L7.79968 29.2072C7.85675 29.0027 7.82867 28.7839 7.72125 28.6011L7.04865 27.4551C5.69458 25.1477 4.97894 22.5055 4.97894 19.8138C4.97894 11.4731 11.7648 4.6875 20.1056 4.6875C28.4464 4.6875 35.2319 11.4731 35.2319 19.8141C35.2319 22.8149 34.3549 25.715 32.6956 28.201C32.4561 28.5599 32.5528 29.0448 32.9117 29.2844Z" fill="#FF4B5C"/>
<path d="M17.2504 17.4142L17.3019 17.3541C18.0017 16.5686 17.825 15.6461 17.5534 15.0107C17.1521 14.0723 16.1023 11.6736 16.0028 11.4465C15.8478 11.0547 15.3305 10.434 14.2901 10.4123C13.479 10.3958 13.2123 10.4187 13.15 10.4263C13.1436 10.4269 13.1372 10.4279 13.1311 10.4288C13.0115 10.4462 10.1977 10.9015 9.7119 15.1187C9.48851 17.0575 10.3863 19.3671 12.3804 21.9839C14.588 24.881 16.6174 26.6061 19.6185 28.1363C21.113 28.8983 23.2959 29.7903 25.3281 29.7903C25.394 29.7903 25.4599 29.7894 25.5252 29.7873C27.8076 29.7208 29.0265 28.7723 29.6469 27.9883C30.3055 27.1561 30.4431 26.3361 30.4629 26.1938C30.4761 26.1035 30.5078 25.8185 30.5279 25.076C30.556 24.0356 29.9603 23.4894 29.5764 23.3157C29.3594 23.208 27.1225 22.099 26.2054 21.6544C25.5862 21.3538 24.6759 21.1823 23.8565 22.0712C23.8522 22.0758 23.8483 22.0804 23.8443 22.0844C23.7335 22.1811 23.624 22.3254 23.291 22.771C23.0859 23.0454 22.6767 23.5928 22.5027 23.7756C22.1353 23.8016 20.9067 23.2605 19.165 21.9119C18.0673 21.0617 16.8951 19.7382 16.2466 18.6169C16.2402 18.6011 16.2363 18.5721 16.2381 18.5574C16.5069 18.2809 16.9446 17.7728 17.2504 17.4142ZM18.2083 23.1473C18.7289 23.5504 19.7497 24.3015 20.7367 24.8022C21.2033 25.0388 22.6233 25.7593 23.4988 24.9844C23.7405 24.7705 24.0839 24.3198 24.5422 23.7064C24.6744 23.5297 24.8367 23.3127 24.8996 23.2376C24.9405 23.2004 24.9744 23.1638 25.0052 23.1302C25.1459 22.9776 25.2099 22.908 25.5234 23.06C26.4645 23.5165 28.8125 24.6811 28.8968 24.7226C28.9258 24.7516 28.9709 24.8459 28.9657 25.0336C28.9484 25.6812 28.923 25.9152 28.9178 25.9592C28.9145 25.9753 28.916 25.9656 28.9142 25.9833C28.905 26.0364 28.8068 26.5601 28.3761 27.0743C27.7688 27.8 26.7944 28.1873 25.4797 28.2254C23.7219 28.2776 21.7087 27.4484 20.3281 26.7444C17.5192 25.3119 15.7019 23.765 13.6227 21.0367C11.9064 18.7845 11.0907 16.7996 11.2637 15.2972C11.5896 12.4686 13.1399 12.0242 13.3478 11.9772C13.421 11.9727 13.6688 11.9623 14.2578 11.9745C14.4455 11.9785 14.5373 12.0282 14.5651 12.0584C14.6039 12.1469 15.7052 14.6628 16.1163 15.6247C16.3217 16.1053 16.1957 16.247 16.1349 16.315C16.124 16.3272 16.1145 16.3382 16.1063 16.3474L16.0614 16.4001C15.61 16.929 15.2923 17.2888 15.1172 17.4686C14.5404 18.0612 14.595 18.8815 14.8904 19.393C15.6418 20.6949 16.9443 22.1683 18.2083 23.1473Z" fill="#FF4B5C"/>
<path d="M6.64735 7.13684C6.83503 7.13684 7.02333 7.0697 7.17286 6.93359C7.49208 6.64337 7.51588 6.14929 7.22566 5.83007C6.93513 5.51086 6.44136 5.48736 6.12184 5.77758L6.12153 5.77789C5.80232 6.06811 5.77913 6.56189 6.06935 6.8814C6.22346 7.05078 6.43495 7.13684 6.64735 7.13684Z" fill="#FF4B5C"/>
<path d="M30.7761 30.5368L30.7758 30.5374C30.4855 30.8566 30.5093 31.3504 30.8286 31.6406C30.9781 31.7767 31.1661 31.8439 31.3538 31.8439C31.5662 31.8439 31.778 31.7575 31.9321 31.5878C32.2226 31.2686 32.1988 30.7745 31.8796 30.4843C31.5604 30.1941 31.0663 30.2176 30.7761 30.5368Z" fill="#FF4B5C"/>
</svg>
