<svg width="48" height="48" viewBox="0 0 48 48" fill="none" xmlns="http://www.w3.org/2000/svg">
<path d="M36 19C36 26.18 29.28 32 21 32C18.5895 32.0151 16.2034 31.5174 14 30.54L12.7 31.1L6 34L8.3 26C6.79557 23.9773 5.98845 21.5208 6 19C6 11.82 12.72 6 21 6C28.26 6 34.32 10.48 35.7 16.42C35.9017 17.2651 36.0024 18.1312 36 19Z" stroke="#FF4B5C" stroke-width="4" stroke-linecap="round" stroke-linejoin="round"/>
<path d="M35.7 16.42C37.5714 17.4928 39.1344 19.0301 40.238 20.8835C41.3416 22.7368 41.9485 24.8435 42 27C42.0115 29.5208 41.2044 31.9773 39.7 34L42 42L34 38.54C31.7966 39.5174 29.4105 40.0151 27 40C24.0112 40.1103 21.0581 39.321 18.5229 37.7342C15.9877 36.1475 13.9871 33.8364 12.78 31.1" stroke="#FF4B5C" stroke-width="4" stroke-linecap="round" stroke-linejoin="round"/>
</svg>
